<svg xmlns="http://www.w3.org/2000/svg" version="1.1" xmlns:xlink="http://www.w3.org/1999/xlink" xmlns:svgjs="http://svgjs.dev/svgjs" width="1500" height="215" viewBox="0 0 1500 215"><g transform="matrix(1,0,0,1,-0.9090909090909918,-0.11424247038749513)"><svg viewBox="0 0 396 57" data-background-color="#000000" preserveAspectRatio="xMidYMid meet" height="215" width="1500" xmlns="http://www.w3.org/2000/svg" xmlns:xlink="http://www.w3.org/1999/xlink"><g id="tight-bounds" transform="matrix(1,0,0,1,0.2400000000000091,0.03028753866087186)"><svg viewBox="0 0 395.52 56.93942492267824" height="56.93942492267824" width="395.52"><g><svg viewBox="0 0 505.33311939390825 72.74822313074495" height="56.93942492267824" width="395.52"><g><rect width="6.527870485668508" height="72.74822313074495" x="86.19658271539032" y="0" fill="#ffffff" opacity="1" stroke-width="0" stroke="transparent" fill-opacity="1" class="rect-yte-0" data-fill-palette-color="primary" rx="1%" id="yte-0" data-palette-color="#ffffff"></rect></g><g transform="matrix(1,0,0,1,109.81311939390832,0.18096572918095433)"><svg viewBox="0 0 395.5199999999999 72.38629167238304" height="72.38629167238304" width="395.5199999999999"><g id="textblocktransform"><svg viewBox="0 0 395.5199999999999 72.38629167238304" height="72.38629167238304" width="395.5199999999999" id="textblock"><g><svg viewBox="0 0 395.5199999999999 72.38629167238304" height="72.38629167238304" width="395.5199999999999"><g transform="matrix(1,0,0,1,0,0)"><svg width="395.5199999999999" viewBox="0.24 -32.03 177.95 32.57" height="72.38629167238304" data-palette-color="#ffffff"><path d="M15.63-28.98Q16.6-28.98 17.2-28.6 17.8-28.22 18.09-27.39L18.09-27.39 26.71-3.32 28.2-3.32Q29.03-3.32 29.38-2.94 29.74-2.56 29.74-1.66L29.74-1.66Q29.74-0.76 29.38-0.38 29.03 0 28.2 0L28.2 0 19.56 0Q18.73 0 18.37-0.38 18.02-0.76 18.02-1.66L18.02-1.66Q18.02-2.56 18.37-2.94 18.73-3.32 19.56-3.32L19.56-3.32 22.85-3.32 20.85-9.13 9.01-9.13 6.98-3.32 9.94-3.32Q10.77-3.32 11.12-2.94 11.47-2.56 11.47-1.66L11.47-1.66Q11.47-0.76 11.12-0.38 10.77 0 9.94 0L9.94 0 1.78 0Q0.95 0 0.6-0.38 0.24-0.76 0.24-1.66L0.24-1.66Q0.24-2.56 0.6-2.94 0.95-3.32 1.78-3.32L1.78-3.32 3.15-3.32 11.23-25.66 6.67-25.66Q5.83-25.66 5.48-26.04 5.13-26.42 5.13-27.32L5.13-27.32Q5.13-28.22 5.48-28.6 5.83-28.98 6.67-28.98L6.67-28.98 15.63-28.98ZM15.19-25.66L14.72-25.66 10.16-12.45 19.73-12.45 15.19-25.66ZM53.49-32.03Q54.32-32.03 54.67-31.65 55.03-31.27 55.03-30.37L55.03-30.37 55.03-3.32 57.03-3.32Q57.86-3.32 58.21-2.94 58.57-2.56 58.57-1.66L58.57-1.66Q58.57-0.76 58.21-0.38 57.86 0 57.03 0L57.03 0 53.15 0Q52.32 0 51.96-0.38 51.61-0.76 51.61-1.66L51.61-1.66 51.61-3.61Q50.07-1.61 48.04-0.54 46.02 0.54 43.63 0.54L43.63 0.54Q40.6 0.54 38.21-0.89 35.81-2.32 34.45-4.99 33.08-7.67 33.08-11.28L33.08-11.28Q33.08-14.89 34.45-17.57 35.81-20.24 38.21-21.67 40.6-23.1 43.63-23.1L43.63-23.1Q48.22-23.1 51.36-19.07L51.36-19.07 51.36-28.71 47.41-28.71Q46.58-28.71 46.23-29.09 45.87-29.47 45.87-30.37L45.87-30.37Q45.87-31.27 46.23-31.65 46.58-32.03 47.41-32.03L47.41-32.03 53.49-32.03ZM43.87-19.48Q41.7-19.48 40.13-18.44 38.57-17.41 37.75-15.55 36.94-13.7 36.94-11.28L36.94-11.28Q36.94-8.86 37.75-7.01 38.57-5.15 40.13-4.11 41.7-3.08 43.87-3.08L43.87-3.08Q46.04-3.08 47.74-4.05 49.44-5.03 50.4-6.88 51.36-8.74 51.36-11.28L51.36-11.28Q51.36-13.82 50.4-15.67 49.44-17.53 47.74-18.51 46.04-19.48 43.87-19.48L43.87-19.48ZM75.04-23.1Q79.63-23.1 81.93-21.04 84.22-18.99 84.22-14.97L84.22-14.97 84.22-5.25Q84.22-3.32 85.83-3.32L85.83-3.32 86.69-3.32Q87.52-3.32 87.87-2.94 88.23-2.56 88.23-1.66L88.23-1.66Q88.23-0.76 87.87-0.38 87.52 0 86.69 0L86.69 0 85.13 0Q83.54 0 82.4-0.79 81.27-1.59 80.93-3.13L80.93-3.13Q78.93-1.37 76.59-0.42 74.26 0.54 71.65 0.54L71.65 0.54Q69.18 0.54 67.29-0.31 65.4-1.15 64.33-2.76 63.25-4.37 63.25-6.59L63.25-6.59Q63.25-10.45 66.01-12.29 68.77-14.14 73.14-14.14L73.14-14.14Q77.02-14.14 80.56-12.89L80.56-12.89 80.56-14.97Q80.56-17.33 79.23-18.44 77.9-19.56 74.95-19.56L74.95-19.56Q73.12-19.56 71.14-19.04 69.16-18.53 67.38-17.63L67.38-17.63Q66.96-17.41 66.62-17.41L66.62-17.41Q65.82-17.41 65.28-18.58L65.28-18.58Q65.01-19.17 65.01-19.56L65.01-19.56Q65.01-20.41 65.91-20.87L65.91-20.87Q67.96-21.95 70.32-22.52 72.68-23.1 75.04-23.1L75.04-23.1ZM73.16-10.69Q70.36-10.69 68.73-9.73 67.11-8.76 67.11-6.67L67.11-6.67Q67.11-4.88 68.34-3.89 69.58-2.91 71.8-2.91L71.8-2.91Q76.66-2.91 80.56-6.93L80.56-6.93 80.56-9.59Q78.9-10.13 77-10.41 75.09-10.69 73.16-10.69L73.16-10.69ZM112.39-23.1Q114.3-23.1 115.96-22.12L115.96-22.12Q116.94-21.53 116.94-20.61L116.94-20.61Q116.94-20.17 116.72-19.58L116.72-19.58Q116.2-18.19 115.3-18.19L115.3-18.19Q114.93-18.19 114.62-18.38L114.62-18.38Q113.42-19.04 112.05-19.04L112.05-19.04Q109.86-19.04 107.63-17.52 105.41-15.99 103.98-13.45 102.56-10.91 102.56-8.06L102.56-8.06 102.56-3.32 110.78-3.32Q111.61-3.32 111.97-2.94 112.32-2.56 112.32-1.66L112.32-1.66Q112.32-0.76 111.97-0.38 111.61 0 110.78 0L110.78 0 95.06 0Q94.23 0 93.88-0.38 93.52-0.76 93.52-1.66L93.52-1.66Q93.52-2.56 93.88-2.94 94.23-3.32 95.06-3.32L95.06-3.32 98.89-3.32 98.89-19.24 95.79-19.24Q94.96-19.24 94.61-19.62 94.26-20 94.26-20.9L94.26-20.9Q94.26-21.8 94.61-22.18 94.96-22.56 95.79-22.56L95.79-22.56 100.77-22.56Q101.6-22.56 101.96-22.18 102.31-21.8 102.31-20.9L102.31-20.9 102.31-15.97Q103.48-18.12 105.14-19.73 106.8-21.34 108.68-22.22 110.56-23.1 112.39-23.1L112.39-23.1ZM142.59-23.1Q143.59-23.1 144.01-22.73 144.42-22.36 144.42-21.51L144.42-21.51 144.42-16.87Q144.42-16.02 144.01-15.65 143.59-15.28 142.59-15.28L142.59-15.28Q141.76-15.28 141.42-15.92L141.42-15.92Q140.37-17.92 138.37-18.74 136.37-19.56 133.29-19.56L133.29-19.56Q130.92-19.56 129.59-18.71 128.26-17.87 128.26-16.36L128.26-16.36Q128.26-15.58 128.76-15.09 129.26-14.6 130.24-14.28L130.24-14.28Q131.04-14.01 132.11-13.87 133.17-13.72 134.85-13.55L134.85-13.55Q137.22-13.28 138.67-13.05 140.13-12.82 141.42-12.35L141.42-12.35Q143.37-11.65 144.46-10.3 145.55-8.96 145.55-6.76L145.55-6.76Q145.55-4.57 144.44-2.92 143.32-1.27 141.19-0.37 139.05 0.54 136.07 0.54L136.07 0.54Q133.44 0.54 131.44-0.2 129.43-0.93 127.94-2.42L127.94-2.42 127.94-1.05Q127.94-0.2 127.53 0.17 127.11 0.54 126.11 0.54L126.11 0.54Q125.11 0.54 124.7 0.17 124.28-0.2 124.28-1.05L124.28-1.05 124.28-6.91Q124.28-7.76 124.7-8.13 125.11-8.5 126.11-8.5L126.11-8.5Q126.63-8.5 126.92-8.26 127.21-8.03 127.43-7.5L127.43-7.5Q128.31-5.15 130.36-4.08 132.41-3 135.83-3L135.83-3Q138.66-3 140.18-4.03 141.69-5.05 141.69-6.76L141.69-6.76Q141.69-7.59 141.15-8.13 140.62-8.67 139.61-9.01L139.61-9.01Q138.76-9.28 137.65-9.46 136.54-9.64 134.83-9.81L134.83-9.81Q132.53-10.06 131-10.33 129.46-10.6 128.16-11.11L128.16-11.11Q126.38-11.82 125.39-13.07 124.4-14.33 124.4-16.36L124.4-16.36Q124.4-18.48 125.51-20.01 126.63-21.53 128.59-22.31 130.56-23.1 133.05-23.1L133.05-23.1Q135.41-23.1 137.38-22.39 139.35-21.68 140.76-20.41L140.76-20.41 140.76-21.51Q140.76-22.36 141.18-22.73 141.59-23.1 142.59-23.1L142.59-23.1ZM157.68-32.03Q158.51-32.03 158.86-31.65 159.22-31.27 159.22-30.37L159.22-30.37 159.22-18.21Q160.8-20.58 162.89-21.84 164.98-23.1 167.39-23.1L167.39-23.1Q169.62-23.1 171.25-22.13 172.89-21.17 173.77-19.36 174.65-17.55 174.65-15.14L174.65-15.14 174.65-3.32 176.65-3.32Q177.48-3.32 177.83-2.94 178.19-2.56 178.19-1.66L178.19-1.66Q178.19-0.76 177.83-0.38 177.48 0 176.65 0L176.65 0 168.74 0Q167.91 0 167.55-0.38 167.2-0.76 167.2-1.66L167.2-1.66Q167.2-2.56 167.55-2.94 167.91-3.32 168.74-3.32L168.74-3.32 170.98-3.32 170.98-14.77Q170.98-16.94 169.98-18.21 168.98-19.48 167.03-19.48L167.03-19.48Q164.95-19.48 163.16-18.29 161.36-17.09 160.29-14.99 159.22-12.89 159.22-10.3L159.22-10.3 159.22-3.32 161.46-3.32Q162.29-3.32 162.65-2.94 163-2.56 163-1.66L163-1.66Q163-0.76 162.65-0.38 162.29 0 161.46 0L161.46 0 153.55 0Q152.72 0 152.37-0.38 152.01-0.76 152.01-1.66L152.01-1.66Q152.01-2.56 152.37-2.94 152.72-3.32 153.55-3.32L153.55-3.32 155.55-3.32 155.55-28.71 153.31-28.71Q152.48-28.71 152.12-29.09 151.77-29.47 151.77-30.37L151.77-30.37Q151.77-31.27 152.12-31.65 152.48-32.03 153.31-32.03L153.31-32.03 157.68-32.03Z" opacity="1" transform="matrix(1,0,0,1,0,0)" fill="#ffffff" class="wordmark-text-0" data-fill-palette-color="primary" id="text-0"></path></svg></g></svg></g></svg></g></svg></g><g transform="matrix(1,0,0,1,0,0.18096572918095433)"><svg viewBox="0 0 69.10791652254082 72.38629167238304" height="72.38629167238304" width="69.10791652254082"><g><svg version="1.0" xmlns="http://www.w3.org/2000/svg" xmlns:xlink="http://www.w3.org/1999/xlink" x="0" y="0" viewBox="0 0 95.471 100" enable-background="new 0 0 95.471 100" xml:space="preserve" id="icon-0" width="69.10791652254082" height="72.38629167238304" class="icon-icon-0" data-fill-palette-color="accent"><path d="M47.735 0C47.652 2.825 45.997 13.412 27.936 30.934 10.554 47.797 2.439 49.824 0 50 2.439 50.178 10.554 52.204 27.936 69.066 45.997 86.589 47.652 97.177 47.735 100 47.818 97.177 49.474 86.589 67.533 69.066 84.917 52.204 93.031 50.178 95.471 50 93.032 49.824 84.917 47.797 67.533 30.934 49.475 13.412 47.819 2.825 47.735 0" fill="#ffffff" data-fill-palette-color="accent"></path></svg></g></svg></g></svg></g><defs></defs></svg><rect width="395.52" height="56.93942492267824" fill="none" stroke="none" visibility="hidden"></rect></g></svg></g></svg>